<svg xmlns="http://www.w3.org/2000/svg" viewBox="0 0 160 100">
  <g fill="#000">
    <!-- G -->
    <path d="M 40 15 L 10 50 L 40 85 L 58 85 L 28 50 L 58 15 Z" />
    <path d="M 40 15 L 78 15 L 78 33 L 40 33 Z" />
    <path d="M 40 85 L 78 85 L 78 67 L 40 67 Z" />
    <path d="M 78 67 L 78 42 L 35 42 L 35 60 L 60 60 L 60 67 Z" />

    <!-- N -->
    <path d="M 82 15 L 100 15 L 100 85 L 82 85 Z" />
    <path d="M 120 15 L 150 50 L 120 85 L 102 85 L 132 50 L 102 15 Z" />
    <path d="M 82 15 L 100 15 L 120 85 L 102 85 Z" />
  </g>
</svg>
